<svg fill="none" height="24" viewBox="0 0 24 24" width="24" xmlns="http://www.w3.org/2000/svg"><g fill="#0f0f0f"><path d="m22.1117 8.44803c.2474.49322.8477.69299 1.3415.44618.4824-.24112.687-.86677.4445-1.34726-.2236-.43269-.5063-.83948-.8267-1.20553-.4899-.55972-1.369-1.34142-2.5658-1.34142-.5936 0-1.1283.19664-1.573.41441-.4383.21459-.8493.47855-1.2643.73387-.8309.51115-1.4816.85161-2.1639.85161-.3783 0-.4622-.1589-.624-.48376-.1143-.22995-.3185-.64084-.6943-.96292-.4405-.37746-1.0028-.55321-1.6825-.55321-1.1536 0-2.1252.54715-3.05549 1.16789-.78246.52148-1.29125.832-1.94579.832-.31833 0-.44909-.07438-.51353-.12123-.14615-.10626-.24447-.27051-.33757-.42603-.18341-.30638-.37722-.61278-.63644-.86155-.37585-.36071-.87201-.59108-1.51323-.59108-.5822 0-1.1417.18928-1.60589.40766-.47468.22331-.9212.51138-1.29552.78354-.45979.33428-.902913.70071-1.306772 1.10157-.390624.3905-.390624 1.02363 0 1.41413.390477.39036 1.023682.3903 1.414342.00024.33065-.32673.69351-.6255 1.06907-.89856.31335-.22782.64828-.43971.97069-.59138.5646-.26562.88968-.21508 1.2187.31266.16432.26282.42107.65725.84598.96618.45132.32814 1.00824.50374 1.69017.50374 1.30613 0 2.27855-.64921 2.99098-1.12487.605-.40366 1.251-.87502 2.0103-.87502.3572 0 .4502.13632.6057.44719.1845.37039.3942.72665.7126.99949.4405.37746 1.0028.55321 1.6825.55321 1.3181 0 2.4179-.65949 3.2124-1.14828.3598-.22201.7155-.45491 1.0957-.64106.3211-.1572.5365-.21055.6931-.21055.3037 0 .6749.21824 1.0602.65847.2102.24006.3977.5068.5463.78967z"/><path d="m23.4532 13.8942c-.4938.2468-1.0941.047-1.3415-.4462-.1486-.2828-.3361-.5496-.5463-.7896-.3853-.4403-.7565-.6585-1.0602-.6585-.1566 0-.372.0533-.6931.2105-.3801.1862-.7359.4191-1.0957.6411-.7945.4888-1.8943 1.1483-3.2124 1.1483-.6797 0-1.242-.1758-1.6825-.5532-.3184-.2729-.5281-.6291-.7126-.9995-.1555-.3109-.2485-.4472-.6057-.4472-.7593 0-1.4053.4714-2.0103.875-.71243.4757-1.68485 1.1249-2.99098 1.1249-.68193 0-1.23885-.1756-1.69017-.5038-.42491-.3089-.68166-.7033-.84598-.9661-.32902-.5278-.6541-.5783-1.2187-.3127-.32241.1517-.65734.3636-.97069.5914-.37556.273-.73842.5718-1.06907.8985-.39066.3901-1.023865.3902-1.414342-.0002-.390624-.3905-.390624-1.0236 0-1.4141.403859-.4009.846982-.7673 1.306772-1.1016.37432-.2722.82084-.5602 1.29552-.7835.46419-.2184 1.02369-.4077 1.60589-.4077.64122 0 1.13738.2304 1.51323.5911.25922.2487.45303.5551.63644.8615.09309.1555.19142.3198.33757.4261.06444.0468.1952.1212.51353.1212.65454 0 1.16333-.3105 1.94579-.832.93029-.6208 1.90189-1.1679 3.05549-1.1679.6797 0 1.242.1758 1.6825.5532.3758.3221.58.733.6943.9629.1618.3249.2457.4838.624.4838.6823 0 1.333-.3405 2.1639-.8516.4151-.2553.826-.5193 1.2643-.7339.4447-.2178.9794-.4144 1.573-.4144 1.1968 0 2.0759.7817 2.5658 1.3414.3204.3661.6031.7729.8267 1.2056.2425.4804.0379 1.1061-.4445 1.3472z"/><path d="m23.4532 18.8942c-.4938.2468-1.0941.047-1.3415-.4462-.1486-.2828-.3361-.5496-.5463-.7896-.3853-.4403-.7565-.6585-1.0602-.6585-.1566 0-.372.0533-.6931.2105-.3802.1862-.7359.4191-1.0957.6411-.7945.4888-1.8943 1.1483-3.2124 1.1483-.6797 0-1.242-.1758-1.6825-.5532-.3184-.2729-.5281-.6291-.7126-.9995-.1555-.3109-.2485-.4472-.6057-.4472-.7593 0-1.4053.4714-2.0103.875-.71243.4757-1.68485 1.1249-2.99098 1.1249-.68193 0-1.23885-.1756-1.69017-.5038-.42491-.3089-.68166-.7033-.84598-.9661-.32902-.5278-.6541-.5783-1.2187-.3127-.32241.1517-.65734.3636-.97069.5914-.37556.273-.73842.5718-1.06907.8985-.39066.3901-1.023865.3902-1.414342-.0002-.390624-.3905-.390624-1.0236 0-1.4141.403859-.4009.846982-.7673 1.306772-1.1016.37432-.2722.82084-.5602 1.29552-.7835.46419-.2184 1.02369-.4077 1.60589-.4077.64122 0 1.13738.2304 1.51323.5911.25922.2487.45303.5551.63644.8615.0931.1555.19142.3198.33757.4261.06444.0468.1952.1212.51353.1212.65454 0 1.16333-.3105 1.94579-.832.93029-.6208 1.90189-1.1679 3.05549-1.1679.6797 0 1.242.1758 1.6825.5532.3758.3221.58.733.6943.9629.1618.3249.2457.4838.624.4838.6823 0 1.333-.3405 2.1639-.8516.4151-.2553.826-.5193 1.2643-.7339.4447-.2178.9794-.4144 1.573-.4144 1.1968 0 2.0759.7817 2.5658 1.3414.3204.3661.6031.7729.8267 1.2056.2425.4804.0379 1.1061-.4445 1.3472z"/></g></svg>